<svg width="357" height="245" viewBox="0 0 357 245" fill="none" xmlns="http://www.w3.org/2000/svg">
<g clip-path="url(#clip0_21_615)">
<path d="M81.0857 6.36671C82.8316 6.36671 84.247 4.94147 84.247 3.18335C84.247 1.42524 82.8316 0 81.0857 0C79.3397 0 77.9243 1.42524 77.9243 3.18335C77.9243 4.94147 79.3397 6.36671 81.0857 6.36671Z" fill="#B4B4B4"/>
<path d="M97.0883 6.36671C98.8343 6.36671 100.25 4.94147 100.25 3.18335C100.25 1.42524 98.8343 0 97.0883 0C95.3424 0 93.927 1.42524 93.927 3.18335C93.927 4.94147 95.3424 6.36671 97.0883 6.36671Z" fill="#B4B4B4"/>
<path d="M113.091 6.36671C114.837 6.36671 116.252 4.94147 116.252 3.18335C116.252 1.42524 114.837 0 113.091 0C111.345 0 109.93 1.42524 109.93 3.18335C109.93 4.94147 111.345 6.36671 113.091 6.36671Z" fill="#B4B4B4"/>
<path d="M129.093 6.36671C130.839 6.36671 132.255 4.94147 132.255 3.18335C132.255 1.42524 130.839 0 129.093 0C127.348 0 125.932 1.42524 125.932 3.18335C125.932 4.94147 127.348 6.36671 129.093 6.36671Z" fill="#B4B4B4"/>
<path d="M145.096 6.36671C146.842 6.36671 148.257 4.94147 148.257 3.18335C148.257 1.42524 146.842 0 145.096 0C143.35 0 141.935 1.42524 141.935 3.18335C141.935 4.94147 143.35 6.36671 145.096 6.36671Z" fill="#B4B4B4"/>
<path d="M81.0857 22.683C82.8316 22.683 84.247 21.2578 84.247 19.4996C84.247 17.7415 82.8316 16.3163 81.0857 16.3163C79.3397 16.3163 77.9243 17.7415 77.9243 19.4996C77.9243 21.2578 79.3397 22.683 81.0857 22.683Z" fill="#B4B4B4"/>
<path d="M97.0883 22.683C98.8343 22.683 100.25 21.2578 100.25 19.4996C100.25 17.7415 98.8343 16.3163 97.0883 16.3163C95.3424 16.3163 93.927 17.7415 93.927 19.4996C93.927 21.2578 95.3424 22.683 97.0883 22.683Z" fill="#B4B4B4"/>
<path d="M113.091 22.683C114.837 22.683 116.252 21.2578 116.252 19.4996C116.252 17.7415 114.837 16.3163 113.091 16.3163C111.345 16.3163 109.93 17.7415 109.93 19.4996C109.93 21.2578 111.345 22.683 113.091 22.683Z" fill="#B4B4B4"/>
<path d="M129.093 22.683C130.839 22.683 132.255 21.2578 132.255 19.4996C132.255 17.7415 130.839 16.3163 129.093 16.3163C127.348 16.3163 125.932 17.7415 125.932 19.4996C125.932 21.2578 127.348 22.683 129.093 22.683Z" fill="#007ACC"/>
<path d="M145.096 22.683C146.842 22.683 148.257 21.2578 148.257 19.4996C148.257 17.7415 146.842 16.3163 145.096 16.3163C143.35 16.3163 141.935 17.7415 141.935 19.4996C141.935 21.2578 143.35 22.683 145.096 22.683Z" fill="#B4B4B4"/>
<path d="M177.101 22.683C178.847 22.683 180.263 21.2578 180.263 19.4996C180.263 17.7415 178.847 16.3163 177.101 16.3163C175.355 16.3163 173.94 17.7415 173.94 19.4996C173.94 21.2578 175.355 22.683 177.101 22.683Z" fill="#B4B4B4"/>
<path d="M81.0857 38.9993C82.8316 38.9993 84.247 37.574 84.247 35.8159C84.247 34.0578 82.8316 32.6326 81.0857 32.6326C79.3397 32.6326 77.9243 34.0578 77.9243 35.8159C77.9243 37.574 79.3397 38.9993 81.0857 38.9993Z" fill="#B4B4B4"/>
<path d="M97.0883 38.9993C98.8343 38.9993 100.25 37.574 100.25 35.8159C100.25 34.0578 98.8343 32.6326 97.0883 32.6326C95.3424 32.6326 93.927 34.0578 93.927 35.8159C93.927 37.574 95.3424 38.9993 97.0883 38.9993Z" fill="#B4B4B4"/>
<path d="M113.091 38.9993C114.837 38.9993 116.252 37.574 116.252 35.8159C116.252 34.0578 114.837 32.6326 113.091 32.6326C111.345 32.6326 109.93 34.0578 109.93 35.8159C109.93 37.574 111.345 38.9993 113.091 38.9993Z" fill="#B4B4B4"/>
<path d="M129.093 38.9993C130.839 38.9993 132.255 37.574 132.255 35.8159C132.255 34.0578 130.839 32.6326 129.093 32.6326C127.348 32.6326 125.932 34.0578 125.932 35.8159C125.932 37.574 127.348 38.9993 129.093 38.9993Z" fill="#B4B4B4"/>
<path d="M145.096 38.9993C146.842 38.9993 148.257 37.574 148.257 35.8159C148.257 34.0578 146.842 32.6326 145.096 32.6326C143.35 32.6326 141.935 34.0578 141.935 35.8159C141.935 37.574 143.35 38.9993 145.096 38.9993Z" fill="#B4B4B4"/>
<path d="M81.0857 55.3157C82.8316 55.3157 84.247 53.8904 84.247 52.1323C84.247 50.3742 82.8316 48.949 81.0857 48.949C79.3397 48.949 77.9243 50.3742 77.9243 52.1323C77.9243 53.8904 79.3397 55.3157 81.0857 55.3157Z" fill="#B4B4B4"/>
<path d="M97.0883 55.3157C98.8343 55.3157 100.25 53.8904 100.25 52.1323C100.25 50.3742 98.8343 48.949 97.0883 48.949C95.3424 48.949 93.927 50.3742 93.927 52.1323C93.927 53.8904 95.3424 55.3157 97.0883 55.3157Z" fill="#B4B4B4"/>
<path d="M113.091 55.3157C114.837 55.3157 116.252 53.8904 116.252 52.1323C116.252 50.3742 114.837 48.949 113.091 48.949C111.345 48.949 109.93 50.3742 109.93 52.1323C109.93 53.8904 111.345 55.3157 113.091 55.3157Z" fill="#B4B4B4"/>
<path d="M129.093 55.3157C130.839 55.3157 132.255 53.8904 132.255 52.1323C132.255 50.3742 130.839 48.949 129.093 48.949C127.348 48.949 125.932 50.3742 125.932 52.1323C125.932 53.8904 127.348 55.3157 129.093 55.3157Z" fill="#B4B4B4"/>
<path d="M145.096 55.3157C146.842 55.3157 148.257 53.8904 148.257 52.1323C148.257 50.3742 146.842 48.949 145.096 48.949C143.35 48.949 141.935 50.3742 141.935 52.1323C141.935 53.8904 143.35 55.3157 145.096 55.3157Z" fill="#B4B4B4"/>
<path d="M161.099 55.3157C162.845 55.3157 164.26 53.8904 164.26 52.1323C164.26 50.3742 162.845 48.949 161.099 48.949C159.353 48.949 157.938 50.3742 157.938 52.1323C157.938 53.8904 159.353 55.3157 161.099 55.3157Z" fill="#B4B4B4"/>
<path d="M177.101 55.3157C178.847 55.3157 180.263 53.8904 180.263 52.1323C180.263 50.3742 178.847 48.949 177.101 48.949C175.355 48.949 173.94 50.3742 173.94 52.1323C173.94 53.8904 175.355 55.3157 177.101 55.3157Z" fill="#B4B4B4"/>
<path d="M193.104 55.3157C194.85 55.3157 196.265 53.8904 196.265 52.1323C196.265 50.3742 194.85 48.949 193.104 48.949C191.358 48.949 189.943 50.3742 189.943 52.1323C189.943 53.8904 191.358 55.3157 193.104 55.3157Z" fill="#B4B4B4"/>
<path d="M209.107 55.3157C210.853 55.3157 212.268 53.8904 212.268 52.1323C212.268 50.3742 210.853 48.949 209.107 48.949C207.361 48.949 205.945 50.3742 205.945 52.1323C205.945 53.8904 207.361 55.3157 209.107 55.3157Z" fill="#B4B4B4"/>
<path d="M225.109 55.3157C226.855 55.3157 228.27 53.8904 228.27 52.1323C228.27 50.3742 226.855 48.949 225.109 48.949C223.363 48.949 221.948 50.3742 221.948 52.1323C221.948 53.8904 223.363 55.3157 225.109 55.3157Z" fill="#B4B4B4"/>
<path d="M145.096 71.6322C146.842 71.6322 148.257 70.207 148.257 68.4489C148.257 66.6907 146.842 65.2655 145.096 65.2655C143.35 65.2655 141.935 66.6907 141.935 68.4489C141.935 70.207 143.35 71.6322 145.096 71.6322Z" fill="#B4B4B4"/>
<path d="M161.099 71.6322C162.845 71.6322 164.26 70.207 164.26 68.4489C164.26 66.6907 162.845 65.2655 161.099 65.2655C159.353 65.2655 157.938 66.6907 157.938 68.4489C157.938 70.207 159.353 71.6322 161.099 71.6322Z" fill="#007ACC"/>
<path d="M177.101 71.6322C178.847 71.6322 180.263 70.207 180.263 68.4489C180.263 66.6907 178.847 65.2655 177.101 65.2655C175.355 65.2655 173.94 66.6907 173.94 68.4489C173.94 70.207 175.355 71.6322 177.101 71.6322Z" fill="#B4B4B4"/>
<path d="M193.104 71.6322C194.85 71.6322 196.265 70.207 196.265 68.4489C196.265 66.6907 194.85 65.2655 193.104 65.2655C191.358 65.2655 189.943 66.6907 189.943 68.4489C189.943 70.207 191.358 71.6322 193.104 71.6322Z" fill="#B4B4B4"/>
<path d="M209.107 71.6322C210.853 71.6322 212.268 70.207 212.268 68.4489C212.268 66.6907 210.853 65.2655 209.107 65.2655C207.361 65.2655 205.945 66.6907 205.945 68.4489C205.945 70.207 207.361 71.6322 209.107 71.6322Z" fill="#B4B4B4"/>
<path d="M225.109 71.6322C226.855 71.6322 228.27 70.207 228.27 68.4489C228.27 66.6907 226.855 65.2655 225.109 65.2655C223.363 65.2655 221.948 66.6907 221.948 68.4489C221.948 70.207 223.363 71.6322 225.109 71.6322Z" fill="#B4B4B4"/>
<path d="M145.096 87.9485C146.842 87.9485 148.257 86.5233 148.257 84.7651C148.257 83.007 146.842 81.5818 145.096 81.5818C143.35 81.5818 141.935 83.007 141.935 84.7651C141.935 86.5233 143.35 87.9485 145.096 87.9485Z" fill="#B4B4B4"/>
<path d="M161.099 87.9485C162.845 87.9485 164.26 86.5233 164.26 84.7651C164.26 83.007 162.845 81.5818 161.099 81.5818C159.353 81.5818 157.938 83.007 157.938 84.7651C157.938 86.5233 159.353 87.9485 161.099 87.9485Z" fill="#B4B4B4"/>
<path d="M177.101 87.9485C178.847 87.9485 180.263 86.5233 180.263 84.7651C180.263 83.007 178.847 81.5818 177.101 81.5818C175.355 81.5818 173.94 83.007 173.94 84.7651C173.94 86.5233 175.355 87.9485 177.101 87.9485Z" fill="#B4B4B4"/>
<path d="M193.104 87.9485C194.85 87.9485 196.265 86.5233 196.265 84.7651C196.265 83.007 194.85 81.5818 193.104 81.5818C191.358 81.5818 189.943 83.007 189.943 84.7651C189.943 86.5233 191.358 87.9485 193.104 87.9485Z" fill="#B4B4B4"/>
<path d="M209.107 87.9485C210.853 87.9485 212.268 86.5233 212.268 84.7651C212.268 83.007 210.853 81.5818 209.107 81.5818C207.361 81.5818 205.945 83.007 205.945 84.7651C205.945 86.5233 207.361 87.9485 209.107 87.9485Z" fill="#007ACC"/>
<path d="M225.109 87.9485C226.855 87.9485 228.27 86.5233 228.27 84.7651C228.27 83.007 226.855 81.5818 225.109 81.5818C223.363 81.5818 221.948 83.007 221.948 84.7651C221.948 86.5233 223.363 87.9485 225.109 87.9485Z" fill="#B4B4B4"/>
<path d="M145.096 104.265C146.842 104.265 148.257 102.84 148.257 101.081C148.257 99.3233 146.842 97.8981 145.096 97.8981C143.35 97.8981 141.935 99.3233 141.935 101.081C141.935 102.84 143.35 104.265 145.096 104.265Z" fill="#B4B4B4"/>
<path d="M161.099 104.265C162.845 104.265 164.26 102.84 164.26 101.081C164.26 99.3233 162.845 97.8981 161.099 97.8981C159.353 97.8981 157.938 99.3233 157.938 101.081C157.938 102.84 159.353 104.265 161.099 104.265Z" fill="#B4B4B4"/>
<path d="M177.101 104.265C178.847 104.265 180.263 102.84 180.263 101.081C180.263 99.3233 178.847 97.8981 177.101 97.8981C175.355 97.8981 173.94 99.3233 173.94 101.081C173.94 102.84 175.355 104.265 177.101 104.265Z" fill="#B4B4B4"/>
<path d="M193.104 104.265C194.85 104.265 196.265 102.84 196.265 101.081C196.265 99.3233 194.85 97.8981 193.104 97.8981C191.358 97.8981 189.943 99.3233 189.943 101.081C189.943 102.84 191.358 104.265 193.104 104.265Z" fill="#B4B4B4"/>
<path d="M209.107 104.265C210.853 104.265 212.268 102.84 212.268 101.081C212.268 99.3233 210.853 97.8981 209.107 97.8981C207.361 97.8981 205.945 99.3233 205.945 101.081C205.945 102.84 207.361 104.265 209.107 104.265Z" fill="#B4B4B4"/>
<path d="M225.109 104.265C226.855 104.265 228.27 102.84 228.27 101.081C228.27 99.3233 226.855 97.8981 225.109 97.8981C223.363 97.8981 221.948 99.3233 221.948 101.081C221.948 102.84 223.363 104.265 225.109 104.265Z" fill="#B4B4B4"/>
<path d="M81.0857 120.581C82.8316 120.581 84.247 119.156 84.247 117.398C84.247 115.64 82.8316 114.214 81.0857 114.214C79.3397 114.214 77.9243 115.64 77.9243 117.398C77.9243 119.156 79.3397 120.581 81.0857 120.581Z" fill="#B4B4B4"/>
<path d="M97.0883 120.581C98.8343 120.581 100.25 119.156 100.25 117.398C100.25 115.64 98.8343 114.214 97.0883 114.214C95.3424 114.214 93.927 115.64 93.927 117.398C93.927 119.156 95.3424 120.581 97.0883 120.581Z" fill="#B4B4B4"/>
<path d="M113.091 120.581C114.837 120.581 116.252 119.156 116.252 117.398C116.252 115.64 114.837 114.214 113.091 114.214C111.345 114.214 109.93 115.64 109.93 117.398C109.93 119.156 111.345 120.581 113.091 120.581Z" fill="#B4B4B4"/>
<path d="M129.093 120.581C130.839 120.581 132.255 119.156 132.255 117.398C132.255 115.64 130.839 114.214 129.093 114.214C127.348 114.214 125.932 115.64 125.932 117.398C125.932 119.156 127.348 120.581 129.093 120.581Z" fill="#B4B4B4"/>
<path d="M145.096 120.581C146.842 120.581 148.257 119.156 148.257 117.398C148.257 115.64 146.842 114.214 145.096 114.214C143.35 114.214 141.935 115.64 141.935 117.398C141.935 119.156 143.35 120.581 145.096 120.581Z" fill="#B4B4B4"/>
<path d="M161.099 120.581C162.845 120.581 164.26 119.156 164.26 117.398C164.26 115.64 162.845 114.214 161.099 114.214C159.353 114.214 157.938 115.64 157.938 117.398C157.938 119.156 159.353 120.581 161.099 120.581Z" fill="#B4B4B4"/>
<path d="M177.101 120.581C178.847 120.581 180.263 119.156 180.263 117.398C180.263 115.64 178.847 114.214 177.101 114.214C175.355 114.214 173.94 115.64 173.94 117.398C173.94 119.156 175.355 120.581 177.101 120.581Z" fill="#B4B4B4"/>
<path d="M193.104 120.581C194.85 120.581 196.265 119.156 196.265 117.398C196.265 115.64 194.85 114.214 193.104 114.214C191.358 114.214 189.943 115.64 189.943 117.398C189.943 119.156 191.358 120.581 193.104 120.581Z" fill="#B4B4B4"/>
<path d="M209.107 120.581C210.853 120.581 212.268 119.156 212.268 117.398C212.268 115.64 210.853 114.214 209.107 114.214C207.361 114.214 205.945 115.64 205.945 117.398C205.945 119.156 207.361 120.581 209.107 120.581Z" fill="#B4B4B4"/>
<path d="M225.109 120.581C226.855 120.581 228.27 119.156 228.27 117.398C228.27 115.64 226.855 114.214 225.109 114.214C223.363 114.214 221.948 115.64 221.948 117.398C221.948 119.156 223.363 120.581 225.109 120.581Z" fill="#B4B4B4"/>
<path d="M81.0839 136.897C82.8299 136.897 84.2453 135.472 84.2453 133.714C84.2453 131.956 82.8299 130.53 81.0839 130.53C79.338 130.53 77.9226 131.956 77.9226 133.714C77.9226 135.472 79.338 136.897 81.0839 136.897Z" fill="#B4B4B4"/>
<path d="M97.0883 136.897C98.8343 136.897 100.25 135.472 100.25 133.714C100.25 131.956 98.8343 130.531 97.0883 130.531C95.3424 130.531 93.927 131.956 93.927 133.714C93.927 135.472 95.3424 136.897 97.0883 136.897Z" fill="#B4B4B4"/>
<path d="M81.0839 153.213C82.8299 153.213 84.2453 151.788 84.2453 150.03C84.2453 148.272 82.8299 146.847 81.0839 146.847C79.338 146.847 77.9226 148.272 77.9226 150.03C77.9226 151.788 79.338 153.213 81.0839 153.213Z" fill="#B4B4B4"/>
<path d="M97.0883 153.214C98.8343 153.214 100.25 151.789 100.25 150.03C100.25 148.272 98.8343 146.847 97.0883 146.847C95.3424 146.847 93.927 148.272 93.927 150.03C93.927 151.789 95.3424 153.214 97.0883 153.214Z" fill="#B4B4B4"/>
<path d="M129.093 153.214C130.839 153.214 132.255 151.789 132.255 150.03C132.255 148.272 130.839 146.847 129.093 146.847C127.348 146.847 125.932 148.272 125.932 150.03C125.932 151.789 127.348 153.214 129.093 153.214Z" fill="#B4B4B4"/>
<path d="M288.603 37.5572H163.325C162.71 37.5564 162.12 37.3101 161.685 36.8721C161.25 36.4342 161.006 35.8404 161.005 35.221V3.92852C161.006 3.30917 161.25 2.71539 161.685 2.27744C162.12 1.83949 162.71 1.59313 163.325 1.59241H288.603C289.218 1.59313 289.807 1.83949 290.242 2.27744C290.677 2.71539 290.922 3.30917 290.923 3.92852V35.2211C290.922 35.8404 290.677 36.4342 290.242 36.8721C289.807 37.3101 289.218 37.5564 288.603 37.5572ZM163.325 2.52685C162.956 2.52726 162.602 2.67506 162.341 2.93784C162.08 3.20062 161.933 3.5569 161.933 3.92852V35.2211C161.933 35.5927 162.08 35.949 162.341 36.2117C162.602 36.4745 162.956 36.6223 163.325 36.6227H288.603C288.972 36.6223 289.326 36.4745 289.587 36.2117C289.847 35.949 289.994 35.5927 289.995 35.2211V3.92852C289.994 3.5569 289.847 3.20062 289.587 2.93784C289.326 2.67506 288.972 2.52726 288.603 2.52685H163.325Z" fill="#B4B4B4"/>
<path d="M179.565 29.3864C184.946 29.3864 189.308 24.9936 189.308 19.5747C189.308 14.1559 184.946 9.76306 179.565 9.76306C174.183 9.76306 169.821 14.1559 169.821 19.5747C169.821 24.9936 174.183 29.3864 179.565 29.3864Z" fill="#007ACC"/>
<path d="M202.068 13.0337C201.637 13.0337 201.224 13.206 200.92 13.5126C200.615 13.8193 200.444 14.2353 200.444 14.669C200.444 15.1027 200.615 15.5186 200.92 15.8253C201.224 16.132 201.637 16.3043 202.068 16.3043H245.219C245.65 16.3043 246.063 16.132 246.368 15.8253C246.672 15.5186 246.843 15.1027 246.843 14.669C246.843 14.2353 246.672 13.8193 246.368 13.5126C246.063 13.206 245.65 13.0337 245.219 13.0337H202.068Z" fill="#B4B4B4"/>
<path d="M202.068 22.8453C201.637 22.8453 201.224 23.0176 200.92 23.3243C200.615 23.631 200.444 24.0469 200.444 24.4806C200.444 24.9143 200.615 25.3303 200.92 25.6369C201.224 25.9436 201.637 26.1159 202.068 26.1159H278.627C279.057 26.1159 279.47 25.9436 279.775 25.6369C280.08 25.3303 280.251 24.9143 280.251 24.4806C280.251 24.0469 280.08 23.631 279.775 23.3243C279.47 23.0176 279.057 22.8453 278.627 22.8453H202.068Z" fill="#B4B4B4"/>
<path d="M127.598 101.1H2.31996C1.70489 101.099 1.11522 100.852 0.680297 100.414C0.245378 99.9765 0.000720823 99.3827 0 98.7634V67.4709C0.000720823 66.8515 0.245378 66.2578 0.680297 65.8198C1.11522 65.3819 1.70489 65.1355 2.31996 65.1348H127.598C128.213 65.1355 128.803 65.3819 129.237 65.8198C129.672 66.2578 129.917 66.8515 129.918 67.4709V98.7634C129.917 99.3828 129.672 99.9765 129.237 100.414C128.802 100.852 128.213 101.099 127.598 101.1ZM2.31996 66.0692C1.9509 66.0696 1.59708 66.2174 1.33613 66.4802C1.07517 66.743 0.928385 67.0993 0.927982 67.4709V98.7634C0.928385 99.135 1.07517 99.4913 1.33613 99.7541C1.59708 100.017 1.9509 100.165 2.31996 100.165H127.598C127.967 100.165 128.321 100.017 128.582 99.7541C128.843 99.4913 128.989 99.135 128.99 98.7634V67.4709C128.989 67.0993 128.843 66.743 128.582 66.4802C128.321 66.2174 127.967 66.0696 127.598 66.0692H2.31996Z" fill="#B4B4B4"/>
<path d="M18.5597 92.9288C23.9411 92.9288 28.3035 88.5359 28.3035 83.1171C28.3035 77.6983 23.9411 73.3054 18.5597 73.3054C13.1784 73.3054 8.81592 77.6983 8.81592 83.1171C8.81592 88.5359 13.1784 92.9288 18.5597 92.9288Z" fill="#007ACC"/>
<path d="M41.0632 76.576C40.6325 76.576 40.2194 76.7483 39.9149 77.055C39.6103 77.3617 39.4392 77.7776 39.4392 78.2113C39.4392 78.645 39.6103 79.061 39.9149 79.3677C40.2194 79.6743 40.6325 79.8466 41.0632 79.8466H86.0703C86.501 79.8466 86.9141 79.6743 87.2186 79.3677C87.5232 79.061 87.6943 78.645 87.6943 78.2113C87.6943 77.7776 87.5232 77.3617 87.2186 77.055C86.9141 76.7483 86.501 76.576 86.0703 76.576H41.0632Z" fill="#B4B4B4"/>
<path d="M41.0632 86.3877C40.6325 86.3877 40.2194 86.56 39.9149 86.8667C39.6103 87.1733 39.4392 87.5893 39.4392 88.023C39.4392 88.4567 39.6103 88.8726 39.9149 89.1793C40.2194 89.486 40.6325 89.6583 41.0632 89.6583H117.622C118.052 89.6583 118.465 89.486 118.77 89.1793C119.075 88.8726 119.246 88.4567 119.246 88.023C119.246 87.5893 119.075 87.1733 118.77 86.8667C118.465 86.56 118.052 86.3877 117.622 86.3877H41.0632Z" fill="#B4B4B4"/>
<path d="M240.812 169.781H115.534C114.919 169.781 114.329 169.534 113.894 169.096C113.459 168.658 113.215 168.065 113.214 167.445V136.153C113.215 135.533 113.459 134.94 113.894 134.502C114.329 134.064 114.919 133.817 115.534 133.817H240.812C241.427 133.817 242.016 134.064 242.451 134.502C242.886 134.94 243.131 135.533 243.132 136.153V167.445C243.131 168.065 242.886 168.658 242.451 169.096C242.016 169.534 241.427 169.781 240.812 169.781ZM115.534 134.751C115.165 134.751 114.811 134.899 114.55 135.162C114.289 135.425 114.142 135.781 114.142 136.153V167.445C114.142 167.817 114.289 168.173 114.55 168.436C114.811 168.699 115.165 168.846 115.534 168.847H240.812C241.181 168.846 241.534 168.699 241.795 168.436C242.056 168.173 242.203 167.817 242.204 167.445V136.153C242.203 135.781 242.056 135.425 241.795 135.162C241.534 134.899 241.181 134.751 240.812 134.751H115.534Z" fill="#3F3D56"/>
<path d="M131.773 161.611C137.155 161.611 141.517 157.218 141.517 151.799C141.517 146.38 137.155 141.987 131.773 141.987C126.392 141.987 122.03 146.38 122.03 151.799C122.03 157.218 126.392 161.611 131.773 161.611Z" fill="#007ACC"/>
<path d="M154.277 145.258C153.846 145.258 153.433 145.43 153.129 145.737C152.824 146.043 152.653 146.459 152.653 146.893C152.653 147.327 152.824 147.743 153.129 148.049C153.433 148.356 153.846 148.528 154.277 148.528H195.572C196.003 148.528 196.416 148.356 196.721 148.049C197.025 147.743 197.196 147.327 197.196 146.893C197.196 146.459 197.025 146.043 196.721 145.737C196.416 145.43 196.003 145.258 195.572 145.258H154.277Z" fill="#B4B4B4"/>
<path d="M154.277 155.069C153.846 155.069 153.433 155.242 153.129 155.548C152.824 155.855 152.653 156.271 152.653 156.705C152.653 157.138 152.824 157.554 153.129 157.861C153.433 158.168 153.846 158.34 154.277 158.34H230.836C231.266 158.34 231.679 158.168 231.984 157.861C232.288 157.554 232.46 157.138 232.46 156.705C232.46 156.271 232.288 155.855 231.984 155.548C231.679 155.242 231.266 155.069 230.836 155.069H154.277Z" fill="#B4B4B4"/>
<path d="M308.206 161.845C302.765 178.281 280.508 160.849 280.508 160.849L286.443 98.5928C295.346 91.6201 304.743 97.5967 304.743 97.5967L308.206 161.845Z" fill="#B4B4B4"/>
<path d="M307.037 217.005L314.621 217.086L312.727 239.099L307.038 239.1L307.037 217.005Z" fill="#FFB8B8"/>
<path d="M305.587 237.229H316.789C318.682 237.231 320.497 237.989 321.835 239.337C323.174 240.685 323.927 242.512 323.929 244.418V244.652H305.587V237.229Z" fill="#2F2E41"/>
<path d="M286.478 217.005L278.082 217.005L280.788 239.099L286.477 239.1L286.478 217.005Z" fill="#FFB8B8"/>
<path d="M269.586 244.651V244.418C269.586 242.511 270.338 240.682 271.677 239.334C273.016 237.986 274.832 237.229 276.725 237.229L287.928 237.229L287.928 244.652L269.586 244.651Z" fill="#2F2E41"/>
<path d="M306.525 235.286L296.59 176.966L287.384 234.534L278.058 235.056L275.571 157.924L275.759 157.882C277.3 157.534 313.591 149.508 319.54 160.99L319.57 161.048L314.605 235.548L306.525 235.286Z" fill="#2F2E41"/>
<path d="M295.996 91.2969C302.29 91.2969 307.392 86.1592 307.392 79.8214C307.392 73.4837 302.29 68.3459 295.996 68.3459C289.702 68.3459 284.6 73.4837 284.6 79.8214C284.6 86.1592 289.702 91.2969 295.996 91.2969Z" fill="#FFB8B8"/>
<path d="M305.569 166.763C304.234 166.391 303.271 164.846 302.54 161.902C302.414 161.394 290.582 110.642 300.588 101.447L302.894 94.9955L306.051 97.1144C307.168 97.1249 318.588 97.416 319.564 104.788C320.52 112.003 323.121 160.346 320.506 163.354C320.455 163.42 320.39 163.474 320.316 163.512C320.241 163.55 320.159 163.57 320.076 163.573C317.426 163.573 316.622 160.612 316.433 159.669C315.803 159.931 313.927 160.897 310.843 164.002C308.932 165.926 307.435 166.848 306.197 166.848C305.985 166.849 305.774 166.82 305.569 166.763Z" fill="#2F2E41"/>
<path d="M280.838 164.003C277.754 160.896 275.877 159.931 275.248 159.669C275.059 160.612 274.255 163.573 271.605 163.573C271.522 163.571 271.44 163.55 271.366 163.512C271.291 163.474 271.226 163.42 271.175 163.354C268.56 160.347 271.161 112.004 272.117 104.788C273.093 97.4163 284.514 97.1252 285.63 97.1147L288.787 94.9957L291.093 101.447C301.098 110.642 289.267 161.394 289.141 161.902C288.41 164.846 287.448 166.391 286.112 166.764C285.907 166.82 285.696 166.849 285.484 166.848C284.247 166.848 282.749 165.926 280.838 164.003Z" fill="#2F2E41"/>
<path d="M305.404 86.3766C307.332 84.9801 308.792 83.0258 309.59 80.7734C310.388 78.5211 310.486 76.0775 309.871 73.7677C309.256 71.4579 307.957 69.3913 306.148 67.8428C304.338 66.2944 302.103 65.3374 299.74 65.0992C298.691 64.9935 297.561 65.0092 296.691 64.4093C295.918 63.8763 295.502 62.9519 294.792 62.3369C294.341 61.9855 293.823 61.7316 293.27 61.5913C292.717 61.4509 292.141 61.427 291.578 61.5211C290.455 61.716 289.367 62.0762 288.348 62.5899C285.821 63.7244 283.135 65.1206 281.985 67.6546C280.989 69.8495 281.428 72.556 282.838 74.5074C284.321 76.4386 286.483 77.7239 288.878 78.0983C291.259 78.4565 293.691 78.236 295.97 77.4553C297.474 76.9787 298.959 76.3293 300.535 76.2762C301.765 76.2348 302.979 76.5628 304.024 77.2184C305.068 77.8739 305.895 78.8275 306.4 79.9577C306.904 81.088 307.064 82.3438 306.858 83.5656C306.651 84.7873 306.089 85.9197 305.242 86.8187" fill="#2F2E41"/>
<path d="M243.29 154.642C243.948 154.627 244.596 154.481 245.198 154.213C245.8 153.946 246.344 153.561 246.798 153.082C247.253 152.602 247.609 152.038 247.847 151.42C248.084 150.802 248.199 150.143 248.184 149.48L254.829 138.189L249.695 133.449L242.694 144.574C241.402 144.699 240.209 145.323 239.366 146.316C238.522 147.309 238.094 148.593 238.171 149.897C238.248 151.201 238.824 152.425 239.779 153.31C240.734 154.195 241.992 154.672 243.29 154.642Z" fill="#FFB8B8"/>
<path d="M320.392 167.012C320.944 166.65 321.419 166.182 321.791 165.635C322.162 165.088 322.424 164.473 322.559 163.825C322.695 163.176 322.703 162.507 322.581 161.856C322.46 161.204 322.213 160.583 321.854 160.028L321.599 146.905L314.755 145.598L314.621 158.768C313.588 159.559 312.901 160.723 312.703 162.014C312.504 163.305 312.812 164.624 313.559 165.692C314.307 166.76 315.437 167.494 316.711 167.74C317.986 167.986 319.305 167.725 320.392 167.012Z" fill="#FFB8B8"/>
<path d="M245.311 136.487L245.234 136.363L245.311 136.239C255.279 120.12 276.203 99.9852 276.413 99.7836L276.479 99.7202L279.064 99.6935L281.857 106.702C280.987 108.387 257.546 141.328 254.451 143.512C254.204 143.684 253.925 143.802 253.63 143.858C253.336 143.914 253.033 143.907 252.741 143.837C252.225 143.717 251.734 143.507 251.291 143.215C248.435 141.434 245.458 136.72 245.311 136.487Z" fill="#2F2E41"/>
<path d="M313.453 154.88C313.175 154.785 312.92 154.632 312.704 154.432C312.487 154.232 312.315 153.99 312.197 153.719C310.704 150.213 317.101 105.921 317.374 104.038L317.425 103.681L319.588 105.061L319.609 105.155C319.673 105.438 325.971 133.654 324.264 152.403L324.252 152.537L324.131 152.594C323.87 152.715 318.624 155.142 315.127 155.142C314.558 155.157 313.991 155.068 313.453 154.88Z" fill="#2F2E41"/>
<path d="M356.536 245H233.114C232.991 245 232.873 244.951 232.786 244.863C232.699 244.776 232.65 244.657 232.65 244.533C232.65 244.409 232.699 244.29 232.786 244.203C232.873 244.115 232.991 244.066 233.114 244.066H356.536C356.659 244.066 356.777 244.115 356.864 244.203C356.951 244.29 357 244.409 357 244.533C357 244.657 356.951 244.776 356.864 244.863C356.777 244.951 356.659 245 356.536 245Z" fill="#3F3D56"/>
</g>
<defs>
<clipPath id="clip0_21_615">
<rect width="357" height="245" fill="white"/>
</clipPath>
</defs>
</svg>
