<svg width="356" height="191" viewBox="0 0 356 191" fill="none" xmlns="http://www.w3.org/2000/svg">
<g clip-path="url(#clip0_17_306)">
<path d="M22.3941 22.347C17.965 22.347 13.6353 21.0355 9.95263 18.5782C6.26994 16.121 3.39962 12.6283 1.70466 8.54208C0.00970307 4.4558 -0.433776 -0.0406246 0.430307 -4.37859C1.29439 -8.71656 3.42723 -12.7012 6.55911 -15.8287C9.69098 -18.9562 13.6812 -21.0861 18.0253 -21.949C22.3693 -22.8118 26.872 -22.369 30.964 -20.6764C35.056 -18.9838 38.5535 -16.1175 41.0142 -12.4399C43.4749 -8.76239 44.7883 -4.43876 44.7883 -0.01581C44.7816 5.91313 42.42 11.5973 38.2218 15.7897C34.0235 19.9821 28.3314 22.3403 22.3941 22.347ZM22.3941 -21.4469C18.1496 -21.4469 14.0003 -20.19 10.471 -17.8351C6.94178 -15.4802 4.19106 -12.1331 2.56673 -8.21712C0.94239 -4.30111 0.517392 0.00796318 1.34547 4.16518C2.17355 8.3224 4.21751 12.141 7.21889 15.1382C10.2203 18.1354 14.0443 20.1765 18.2073 21.0034C22.3703 21.8304 26.6854 21.406 30.6069 19.7839C34.5284 18.1618 37.8802 15.415 40.2384 11.8907C42.5965 8.36633 43.8552 4.22285 43.8552 -0.01581C43.8487 -5.6977 41.5856 -11.145 37.5623 -15.1627C33.539 -19.1804 28.084 -21.4404 22.3941 -21.4469Z" fill="#F2F2F2"/>
<path d="M174.488 9.30205C172.273 9.30205 170.108 8.64627 168.267 7.41764C166.425 6.18901 164.99 4.44271 164.143 2.39957C163.295 0.356434 163.074 -1.89176 163.506 -4.06075C163.938 -6.22973 165.004 -8.22207 166.57 -9.78582C168.136 -11.3496 170.131 -12.4145 172.303 -12.8459C174.475 -13.2774 176.727 -13.0559 178.773 -12.2097C180.819 -11.3634 182.567 -9.9302 183.798 -8.09143C185.028 -6.25265 185.685 -4.09084 185.685 -1.87936C185.681 1.0851 184.501 3.92718 182.401 6.02337C180.302 8.11957 177.456 9.29868 174.488 9.30205ZM174.488 -12.129C172.458 -12.129 170.473 -11.5279 168.785 -10.4016C167.097 -9.27538 165.782 -7.67461 165.005 -5.80173C164.228 -3.92885 164.025 -1.86799 164.421 0.120242C164.817 2.10848 165.794 3.93478 167.23 5.36821C168.665 6.80165 170.494 7.77784 172.485 8.17332C174.476 8.56881 176.54 8.36583 178.415 7.59006C180.291 6.81429 181.894 5.50056 183.022 3.81502C184.15 2.12948 184.752 0.147821 184.752 -1.87936C184.749 -4.5968 183.666 -7.20205 181.742 -9.12356C179.818 -11.0451 177.209 -12.1259 174.488 -12.129Z" fill="#F2F2F2"/>
<path d="M253.334 63.8113C250.842 63.8113 248.407 63.0735 246.335 61.6913C244.264 60.3091 242.649 58.3445 241.696 56.046C240.742 53.7475 240.493 51.2182 240.979 48.7781C241.465 46.338 242.665 44.0966 244.426 42.3374C246.188 40.5782 248.433 39.3802 250.876 38.8948C253.32 38.4094 255.852 38.6585 258.154 39.6106C260.456 40.5627 262.423 42.175 263.807 44.2436C265.191 46.3122 265.93 48.7443 265.93 51.2322C265.926 54.5672 264.598 57.7646 262.237 60.1228C259.875 62.481 256.673 63.8075 253.334 63.8113ZM253.334 39.5849C251.027 39.5849 248.772 40.268 246.854 41.5478C244.935 42.8276 243.441 44.6467 242.558 46.7749C241.675 48.9032 241.444 51.2451 241.894 53.5045C242.344 55.7638 243.455 57.8392 245.086 59.4681C246.717 61.097 248.796 62.2063 251.058 62.6557C253.321 63.1051 255.666 62.8744 257.797 61.9929C259.928 61.1113 261.75 59.6185 263.031 57.7031C264.313 55.7877 264.997 53.5358 264.997 51.2322C264.994 48.1442 263.764 45.1837 261.577 43.0001C259.391 40.8166 256.426 39.5883 253.334 39.5849Z" fill="#F2F2F2"/>
<path d="M355.534 191H250.561C250.437 191 250.319 190.951 250.231 190.863C250.144 190.776 250.094 190.658 250.094 190.534C250.094 190.41 250.144 190.292 250.231 190.205C250.319 190.117 250.437 190.068 250.561 190.068H355.534C355.657 190.068 355.776 190.117 355.863 190.205C355.951 190.292 356 190.41 356 190.534C356 190.658 355.951 190.776 355.863 190.863C355.776 190.951 355.657 191 355.534 191Z" fill="#CCCCCC"/>
<path d="M299.016 49.0179C305.345 49.0179 310.475 43.8948 310.475 37.5751C310.475 31.2554 305.345 26.1323 299.016 26.1323C292.688 26.1323 287.558 31.2554 287.558 37.5751C287.558 43.8948 292.688 49.0179 299.016 49.0179Z" fill="#FFB8B8"/>
<path d="M300.205 173.456L294.789 175.293L285.116 155.306L293.11 152.595L300.205 173.456Z" fill="#FFB8B8"/>
<path d="M290.395 175.059L300.84 171.517L303.074 178.084L286.053 183.857C285.759 182.995 285.639 182.083 285.698 181.174C285.758 180.265 285.996 179.377 286.399 178.56C286.803 177.743 287.363 177.014 288.049 176.413C288.734 175.812 289.532 175.352 290.395 175.059Z" fill="#2F2E41"/>
<path d="M312.442 184.745L306.73 185.032L302.904 163.165L311.335 162.742L312.442 184.745Z" fill="#FFB8B8"/>
<path d="M302.567 183.607L313.584 183.054L313.933 189.981L295.979 190.882C295.933 189.972 296.068 189.063 296.374 188.205C296.68 187.347 297.153 186.558 297.764 185.882C298.376 185.206 299.115 184.658 299.939 184.267C300.763 183.877 301.656 183.653 302.567 183.607Z" fill="#2F2E41"/>
<path d="M278.447 112.092C278.96 111.636 279.366 111.074 279.637 110.445C279.908 109.816 280.038 109.135 280.017 108.451C279.996 107.766 279.825 107.094 279.516 106.483C279.207 105.871 278.768 105.335 278.229 104.911L283.676 89.1763L275.282 91.3183L271.397 105.932C270.744 106.884 270.463 108.041 270.608 109.185C270.753 110.329 271.313 111.38 272.182 112.139C273.051 112.899 274.169 113.313 275.324 113.304C276.478 113.296 277.59 112.864 278.447 112.092Z" fill="#FFB8B8"/>
<path d="M311.908 178.152C311.834 178.152 311.76 178.148 311.687 178.141L303.933 177.321C303.456 177.273 303.011 177.063 302.671 176.726C302.332 176.388 302.118 175.945 302.067 175.469L296.075 122.12L291.739 136.719L299.823 165.41C299.905 165.702 299.923 166.009 299.875 166.309C299.827 166.608 299.715 166.894 299.545 167.146C299.376 167.398 299.154 167.61 298.894 167.768C298.635 167.926 298.344 168.026 298.042 168.061L290.182 168.963C289.681 169.018 289.177 168.893 288.761 168.61C288.345 168.326 288.044 167.904 287.913 167.418L279.324 135.131C279.254 134.865 279.236 134.589 279.272 134.316L283.133 105.338L311.925 107.644L314.007 175.992C314.015 176.272 313.967 176.552 313.866 176.814C313.764 177.075 313.611 177.314 313.415 177.516C313.22 177.717 312.985 177.877 312.726 177.987C312.468 178.096 312.189 178.152 311.908 178.152Z" fill="#2F2E41"/>
<path d="M301.955 112.599C292.309 112.599 281.388 108.877 280.727 108.649L280.535 108.582L291.417 52.8225L291.618 52.8307C295.93 53.0054 307.699 53.095 307.818 53.0959L308.029 53.0975L312.565 102.304L313.376 109.502L313.276 109.582C310.501 111.823 306.361 112.599 301.955 112.599Z" fill="#007ACC"/>
<path d="M284.529 107.78L277.722 105.042L281.191 63.1382C281.275 62.1051 281.59 61.104 282.112 60.2086C282.635 59.3133 283.353 58.5466 284.212 57.9652L287.794 55.5311C287.692 55.1869 287.674 54.8237 287.741 54.4712C287.807 54.1186 287.956 53.7869 288.176 53.5032C288.396 53.2194 288.68 52.9918 289.005 52.839C289.33 52.6862 289.687 52.6125 290.046 52.624L291.072 52.657C291.267 52.5257 291.497 52.4564 291.732 52.458C291.967 52.4597 292.196 52.5323 292.389 52.6664C292.582 52.8004 292.73 52.9896 292.814 53.2092C292.897 53.4287 292.912 53.6683 292.857 53.8966L292.632 58.3362L284.529 107.78Z" fill="#2F2E41"/>
<path d="M281.094 100.268L272.207 99.8941L275.086 81.4017L277.472 64.0012C277.519 63.3764 277.706 62.7702 278.021 62.228C278.335 61.6859 278.769 61.2217 279.288 60.8701C279.807 60.5186 280.4 60.2889 281.021 60.1982C281.641 60.1074 282.275 60.1579 282.873 60.346C283.805 60.6381 284.605 61.2485 285.132 62.0703C285.658 62.8921 285.879 63.8727 285.754 64.8404L283.337 83.6938L281.094 100.268Z" fill="#2F2E41"/>
<path d="M295.166 108.421L295.106 108.234C295.065 108.106 291.059 95.277 297.761 79.9676L301.122 63.2767L303.993 52.7965C304.047 52.6092 304.144 52.437 304.276 52.2936C304.408 52.1502 304.572 52.0396 304.755 51.9705C304.969 51.8964 305.2 51.8869 305.42 51.9433C305.64 51.9997 305.838 52.1194 305.99 52.2875C307.992 51.7007 310.144 51.9156 311.99 52.8866L316.023 55.0082C316.92 55.4799 317.634 56.2355 318.055 57.1564C318.476 58.0774 318.578 59.1116 318.347 60.0971L312.835 83.5888L315.514 105.531L295.166 108.421Z" fill="#2F2E41"/>
<path d="M301.035 99.3764C301.717 99.4503 302.407 99.3741 303.056 99.153C303.705 98.9319 304.298 98.5714 304.793 98.0968C305.287 97.6223 305.671 97.0452 305.918 96.4062C306.165 95.7673 306.269 95.0821 306.222 94.3988L318.705 85.1645L314.342 83.0986L300.881 90.0227C299.737 90.1774 298.689 90.7459 297.937 91.6205C297.184 92.4951 296.779 93.6149 296.798 94.7679C296.817 95.9208 297.259 97.0268 298.04 97.8762C298.821 98.7256 299.887 99.2593 301.035 99.3764Z" fill="#FFB8B8"/>
<path d="M308.861 95.2431L304.646 87.3839L315.043 80.5502L309.969 62.3758C309.766 61.6481 309.715 60.8865 309.82 60.1383C309.925 59.3902 310.183 58.6716 310.578 58.0276C310.974 57.3835 311.498 56.8278 312.118 56.395C312.738 55.9623 313.441 55.6619 314.182 55.5125C315.493 55.2517 316.853 55.4746 318.012 56.1399C319.17 56.8051 320.047 57.8675 320.48 59.1298L327.327 79.2262C327.468 79.6403 327.476 80.0881 327.349 80.5069C327.223 80.9257 326.969 81.2945 326.622 81.5616L308.861 95.2431Z" fill="#2F2E41"/>
<path d="M299.827 40.002C298.454 40.1804 297.417 38.777 296.937 37.4796C296.456 36.1823 296.09 34.6719 294.896 33.9711C293.264 33.0137 291.177 34.1652 289.311 33.8493C287.204 33.4926 285.834 31.2626 285.726 29.131C285.619 26.9995 286.468 24.9495 287.302 22.9842L287.593 25.4266C287.554 24.5988 287.728 23.7749 288.099 23.0337C288.47 22.2925 289.026 21.6588 289.712 21.1931L289.337 24.7769C289.417 24.2824 289.594 23.8086 289.857 23.3826C290.121 22.9565 290.466 22.5867 290.874 22.2943C291.281 22.0018 291.742 21.7926 292.23 21.6785C292.718 21.5644 293.224 21.5478 293.719 21.6295L293.66 23.7648C296.094 23.4758 298.549 23.1864 300.99 23.4066C303.431 23.6268 305.889 24.398 307.739 26.0033C310.506 28.4046 311.517 32.3585 311.177 36.0038C310.838 39.6491 309.331 43.0736 307.761 46.3817C307.366 47.214 306.819 48.1532 305.903 48.2592C305.08 48.3545 304.326 47.6673 304.07 46.8801C303.873 46.0724 303.881 45.2283 304.092 44.4244C304.324 43.1957 304.616 41.9398 304.398 40.7086C304.181 39.4773 303.294 38.2607 302.051 38.1098C300.808 37.9589 299.536 39.3776 300.134 40.4762L299.827 40.002Z" fill="#2F2E41"/>
<path d="M149.905 165.645L145.445 163.769L142.385 141.44H101.637L98.3203 163.678L94.3297 165.671C94.1388 165.766 93.9857 165.923 93.8952 166.116C93.8048 166.309 93.7822 166.527 93.8313 166.734C93.8803 166.942 93.9981 167.127 94.1655 167.259C94.3329 167.391 94.5401 167.463 94.7536 167.463H149.538C149.757 167.463 149.969 167.388 150.138 167.249C150.307 167.111 150.423 166.918 150.467 166.704C150.51 166.49 150.478 166.268 150.375 166.074C150.273 165.881 150.107 165.73 149.905 165.645Z" fill="#E6E6E6"/>
<path d="M222.317 144.411H22.1521C21.1019 144.408 20.0955 143.99 19.3537 143.248C18.6119 142.505 18.1953 141.499 18.1953 140.451V112.264H226.274V140.451C226.274 141.499 225.858 142.505 225.116 143.248C224.374 143.99 223.368 144.408 222.317 144.411Z" fill="#CCCCCC"/>
<path d="M226.483 125.586H18.0125V4.98181C18.0139 3.71614 18.5181 2.50273 19.4143 1.60778C20.3106 0.712825 21.5257 0.20942 22.7931 0.208008H221.703C222.97 0.209432 224.185 0.712842 225.081 1.60779C225.978 2.50274 226.482 3.71614 226.483 4.98181V125.586Z" fill="#3F3D56"/>
<path d="M214.032 116.832H30.4636C29.4865 116.831 28.5497 116.443 27.8588 115.753C27.1678 115.063 26.7792 114.128 26.7781 113.152V12.6417C26.7792 11.6659 27.1678 10.7304 27.8587 10.0404C28.5497 9.35043 29.4865 8.9623 30.4636 8.96118H214.032C215.009 8.9623 215.946 9.35043 216.637 10.0404C217.328 10.7304 217.717 11.6659 217.718 12.6417V113.152C217.717 114.128 217.328 115.063 216.637 115.753C215.946 116.443 215.009 116.831 214.032 116.832Z" fill="white"/>
<path d="M212.304 167.696H34.5508C34.427 167.696 34.3084 167.647 34.2209 167.56C34.1334 167.472 34.0842 167.354 34.0842 167.23C34.0842 167.107 34.1334 166.988 34.2209 166.901C34.3084 166.813 34.427 166.764 34.5508 166.764H212.304C212.428 166.764 212.547 166.813 212.634 166.901C212.722 166.988 212.771 167.107 212.771 167.23C212.771 167.354 212.722 167.472 212.634 167.56C212.547 167.647 212.428 167.696 212.304 167.696Z" fill="#CCCCCC"/>
<path d="M196.787 104.344H47.7092C47.5855 104.344 47.4668 104.295 47.3793 104.208C47.2918 104.12 47.2427 104.002 47.2427 103.878V32.5252C47.2427 32.4017 47.2918 32.2832 47.3793 32.1958C47.4668 32.1084 47.5855 32.0593 47.7092 32.0593C47.833 32.0593 47.9516 32.1084 48.0391 32.1958C48.1266 32.2832 48.1758 32.4017 48.1758 32.5252V103.412H196.787C196.91 103.412 197.029 103.461 197.117 103.549C197.204 103.636 197.253 103.755 197.253 103.878C197.253 104.002 197.204 104.12 197.117 104.208C197.029 104.295 196.91 104.344 196.787 104.344Z" fill="#3F3D56"/>
<path d="M79.5606 99.2191H66.0014C65.6342 99.2187 65.2822 99.0729 65.0226 98.8137C64.763 98.5544 64.6169 98.2029 64.6165 97.8362V79.171C64.6169 78.8043 64.763 78.4528 65.0226 78.1936C65.2822 77.9343 65.6342 77.7885 66.0014 77.7881H79.5606C79.9277 77.7885 80.2797 77.9343 80.5394 78.1936C80.799 78.4528 80.9451 78.8043 80.9455 79.171V97.8362C80.9451 98.2029 80.799 98.5544 80.5394 98.8137C80.2797 99.0729 79.9277 99.2187 79.5606 99.2191Z" fill="#007ACC"/>
<path d="M104.287 99.2192H90.7282C90.361 99.2188 90.009 99.073 89.7494 98.8137C89.4898 98.5545 89.3437 98.203 89.3433 97.8363V61.4671C89.3437 61.1005 89.4898 60.749 89.7494 60.4897C90.009 60.2305 90.361 60.0846 90.7282 60.0842H104.287C104.655 60.0846 105.007 60.2305 105.266 60.4897C105.526 60.749 105.672 61.1005 105.672 61.4671V97.8363C105.672 98.203 105.526 98.5545 105.266 98.8137C105.007 99.073 104.655 99.2188 104.287 99.2192Z" fill="#007ACC"/>
<path d="M129.014 99.2191H115.455C115.088 99.2187 114.736 99.0729 114.476 98.8137C114.217 98.5544 114.071 98.2029 114.07 97.8362V79.171C114.071 78.8043 114.217 78.4528 114.476 78.1936C114.736 77.9343 115.088 77.7885 115.455 77.7881H129.014C129.381 77.7885 129.733 77.9343 129.993 78.1936C130.253 78.4528 130.399 78.8043 130.399 79.171V97.8362C130.399 98.2029 130.253 98.5544 129.993 98.8137C129.733 99.0729 129.381 99.2187 129.014 99.2191Z" fill="#007ACC"/>
<path d="M153.741 99.2191H140.182C139.823 99.2268 139.476 99.0922 139.216 98.8447C138.957 98.5973 138.806 98.2571 138.797 97.8989V54.416C138.806 54.0577 138.957 53.7176 139.216 53.4701C139.476 53.2227 139.823 53.0881 140.182 53.0958H153.741C154.1 53.0881 154.447 53.2227 154.707 53.4701C154.966 53.7176 155.117 54.0577 155.126 54.416V97.8989C155.117 98.2571 154.966 98.5973 154.707 98.8447C154.447 99.0922 154.1 99.2268 153.741 99.2191Z" fill="#007ACC"/>
<path d="M178.468 99.2193H164.909C164.542 99.2189 164.19 99.0731 163.93 98.8138C163.67 98.5546 163.524 98.2031 163.524 97.8364V41.8997C163.524 41.5331 163.67 41.1816 163.93 40.9223C164.19 40.6631 164.542 40.5173 164.909 40.5168H178.468C178.835 40.5173 179.187 40.6631 179.447 40.9223C179.706 41.1816 179.853 41.5331 179.853 41.8997V97.8364C179.853 98.2031 179.706 98.5546 179.447 98.8138C179.187 99.0731 178.835 99.2189 178.468 99.2193Z" fill="#007ACC"/>
<path d="M72.781 72.1974C74.3269 72.1974 75.5802 70.9459 75.5802 69.402C75.5802 67.8582 74.3269 66.6067 72.781 66.6067C71.235 66.6067 69.9817 67.8582 69.9817 69.402C69.9817 70.9459 71.235 72.1974 72.781 72.1974Z" fill="#3F3D56"/>
<path d="M97.5078 54.0277C99.0538 54.0277 100.307 52.7762 100.307 51.2324C100.307 49.6885 99.0538 48.437 97.5078 48.437C95.9618 48.437 94.7085 49.6885 94.7085 51.2324C94.7085 52.7762 95.9618 54.0277 97.5078 54.0277Z" fill="#3F3D56"/>
<path d="M122.235 72.1974C123.781 72.1974 125.034 70.9459 125.034 69.402C125.034 67.8582 123.781 66.6067 122.235 66.6067C120.689 66.6067 119.435 67.8582 119.435 69.402C119.435 70.9459 120.689 72.1974 122.235 72.1974Z" fill="#3F3D56"/>
<path d="M146.962 45.1757C148.508 45.1757 149.761 43.9241 149.761 42.3803C149.761 40.8365 148.508 39.585 146.962 39.585C145.416 39.585 144.162 40.8365 144.162 42.3803C144.162 43.9241 145.416 45.1757 146.962 45.1757Z" fill="#3F3D56"/>
<path d="M171.688 34.9259C173.234 34.9259 174.488 33.6744 174.488 32.1306C174.488 30.5867 173.234 29.3352 171.688 29.3352C170.142 29.3352 168.889 30.5867 168.889 32.1306C168.889 33.6744 170.142 34.9259 171.688 34.9259Z" fill="#3F3D56"/>
<path d="M122.293 70.0282L97.5078 51.4894L73.0608 69.7748L72.501 69.0293L97.5078 50.3251L122.176 68.7759L146.689 41.988L146.787 41.9479L171.514 31.9993L171.863 32.8635L147.234 42.7726L122.293 70.0282Z" fill="#3F3D56"/>
</g>
<defs>
<clipPath id="clip0_17_306">
<rect width="356" height="191" fill="white"/>
</clipPath>
</defs>
</svg>
